<svg width="64px" height="64px" viewBox="0 0 64 64" version="1.1" xmlns="http://www.w3.org/2000/svg" xmlns:xlink="http://www.w3.org/1999/xlink">
    <title>app-third party/xorg/64px</title>
    <defs>
        <filter x="-8.9%" y="-7.1%" width="117.9%" height="117.9%" filterUnits="objectBoundingBox" id="filter-1">
            <feOffset dx="0" dy="1" in="SourceAlpha" result="shadowOffsetOuter1"></feOffset>
            <feGaussianBlur stdDeviation="1.5" in="shadowOffsetOuter1" result="shadowBlurOuter1"></feGaussianBlur>
            <feColorMatrix values="0 0 0 0 0   0 0 0 0 0   0 0 0 0 0  0 0 0 0.2 0" type="matrix" in="shadowBlurOuter1" result="shadowMatrixOuter1"></feColorMatrix>
            <feMerge>
                <feMergeNode in="shadowMatrixOuter1"></feMergeNode>
                <feMergeNode in="SourceGraphic"></feMergeNode>
            </feMerge>
        </filter>
        <linearGradient x1="50%" y1="0%" x2="50%" y2="98.1385523%" id="linearGradient-2">
            <stop stop-color="#FFFFFF" offset="0%"></stop>
            <stop stop-color="#EDEDED" offset="100%"></stop>
        </linearGradient>
        <radialGradient cx="50%" cy="50%" fx="50%" fy="50%" r="86.9406321%" gradientTransform="translate(0.5, 0.5), scale(0.8637, 1), rotate(90), scale(1, 1.2351), translate(-0.5, -0.5)" id="radialGradient-3">
            <stop stop-color="#22C8FB" offset="0%"></stop>
            <stop stop-color="#0074FF" offset="56.2445296%"></stop>
            <stop stop-color="#0074FF" offset="78.3818274%"></stop>
            <stop stop-color="#44B0FB" offset="100%"></stop>
        </radialGradient>
    </defs>
    <g id="app-third-party/xorg/64px" stroke="none" stroke-width="1" fill="none" fill-rule="evenodd">
        <g id="编组" filter="url(#filter-1)" transform="translate(4, 4)">
            <rect id="矩形" fill="url(#linearGradient-2)" x="0" y="0" width="56" height="56" rx="12"></rect>
            <path d="M33.429904,26.1671768 C33.4359877,26.174303 33.4419911,26.1814974 33.447913,26.1887587 L47.4585027,43.3679827 C47.8075562,43.7959781 47.7435611,44.4259008 47.3155657,44.7749543 C47.1370927,44.9205087 46.9138497,45 46.6835484,45 L34.9982118,45 C34.3822762,45 33.8006963,44.7161973 33.4216869,44.2306784 L27.5457641,36.7034977 C27.120961,36.1593161 26.3354437,36.0625406 25.7912621,36.4873437 L25.7469287,36.5236165 L16.4199384,44.5184884 C16.0574481,44.8292063 15.5957623,45 15.1183267,45 L12.1561202,45 C11.6038354,45 11.1561202,44.5522847 11.1561202,44 C11.1561202,43.7073816 11.2842873,43.429445 11.5068374,43.2394529 L31.6676166,26.0280964 C32.1926648,25.5798602 32.9816677,25.6421286 33.429904,26.1671768 Z M21.0017882,11 C21.6177238,11 22.1993037,11.2838027 22.5783131,11.7693216 L28.4542359,19.2965023 C28.879039,19.8406839 29.6645563,19.9374594 30.2087379,19.5126563 L30.2530713,19.4763835 L39.5800616,11.4815116 C39.9425519,11.1707937 40.4042377,11 40.8816733,11 L43.8438798,11 C44.3961646,11 44.8438798,11.4477153 44.8438798,12 C44.8438798,12.2926184 44.7157127,12.570555 44.4931626,12.7605471 L24.3323834,29.9719036 C23.8073352,30.4201398 23.0183323,30.3578714 22.570096,29.8328232 C22.5640123,29.825697 22.5580089,29.8185026 22.552087,29.8112413 L8.54149733,12.6320173 C8.19244382,12.2040219 8.2564389,11.5740992 8.68443433,11.2250457 C8.86290734,11.0794913 9.08615029,11 9.31645162,11 L21.0017882,11 Z" id="形状结合" fill="url(#radialGradient-3)"></path>
        </g>
    </g>
</svg>
