<svg width="48px" height="48px" viewBox="0 0 48 48" version="1.1" xmlns="http://www.w3.org/2000/svg" xmlns:xlink="http://www.w3.org/1999/xlink">
    <title>app-third party/xorg/48px</title>
    <defs>
        <filter x="-8.3%" y="-6.0%" width="116.7%" height="116.7%" filterUnits="objectBoundingBox" id="filter-1">
            <feOffset dx="0" dy="1" in="SourceAlpha" result="shadowOffsetOuter1"></feOffset>
            <feGaussianBlur stdDeviation="1" in="shadowOffsetOuter1" result="shadowBlurOuter1"></feGaussianBlur>
            <feColorMatrix values="0 0 0 0 0   0 0 0 0 0   0 0 0 0 0  0 0 0 0.2 0" type="matrix" in="shadowBlurOuter1" result="shadowMatrixOuter1"></feColorMatrix>
            <feMerge>
                <feMergeNode in="shadowMatrixOuter1"></feMergeNode>
                <feMergeNode in="SourceGraphic"></feMergeNode>
            </feMerge>
        </filter>
        <linearGradient x1="50%" y1="0%" x2="50%" y2="98.1385523%" id="linearGradient-2">
            <stop stop-color="#FFFFFF" offset="0%"></stop>
            <stop stop-color="#EDEDED" offset="100%"></stop>
        </linearGradient>
        <radialGradient cx="50%" cy="50%" fx="50%" fy="50%" r="86.9406321%" gradientTransform="translate(0.5, 0.5), scale(0.8796, 1), rotate(90), scale(1, 1.2351), translate(-0.5, -0.5)" id="radialGradient-3">
            <stop stop-color="#22C8FB" offset="0%"></stop>
            <stop stop-color="#0074FF" offset="56.2445296%"></stop>
            <stop stop-color="#0074FF" offset="78.3818274%"></stop>
            <stop stop-color="#44B0FB" offset="100%"></stop>
        </radialGradient>
    </defs>
    <g id="app-third-party/xorg/48px" stroke="none" stroke-width="1" fill="none" fill-rule="evenodd">
        <g id="编组" filter="url(#filter-1)" transform="translate(3, 3)">
            <rect id="矩形" fill="url(#linearGradient-2)" x="0" y="0" width="42" height="42" rx="9"></rect>
            <path d="M25.066417,19.6308759 C25.0743868,19.6400569 25.0821772,19.6493921 25.0897839,19.6588761 L35.6142202,32.7807467 C35.8733816,33.1038693 35.8215309,33.5759038 35.4984083,33.8350652 C35.3653057,33.9418206 35.1997803,34 35.0291549,34 L26.2644689,34 C25.7935786,34 25.3500189,33.7788741 25.0665964,33.4028298 L20.6668049,27.5651967 C20.355168,27.1517175 19.7673452,27.0691581 19.3538661,27.380795 C19.3338549,27.3958773 19.3144564,27.4117559 19.2957175,27.4283925 L12.319735,33.6217165 C12.0452445,33.865411 11.6909262,34 11.3238676,34 L9.09152429,34 C8.67731073,34 8.34152429,33.6642136 8.34152429,33.25 C8.34152429,33.032698 8.43577259,32.826078 8.59987084,32.6836283 L23.7438856,19.5374781 C24.1348836,19.1980623 24.7270011,19.2398779 25.066417,19.6308759 Z M15.7355311,8 C16.2064214,8 16.6499811,8.22112592 16.9334036,8.59717022 L21.3331951,14.4348033 C21.644832,14.8482825 22.2326548,14.9308419 22.6461339,14.619205 L22.7042825,14.5716075 L29.680265,8.37828346 C29.9547555,8.13458897 30.3090738,8 30.6761324,8 L32.9084757,8 C33.3226893,8 33.6584757,8.33578644 33.6584757,8.75 C33.6584757,8.96730199 33.5642274,9.17392198 33.4001292,9.31637168 L18.2561144,22.4625219 C17.8651164,22.8019377 17.2729989,22.7601221 16.933583,22.3691241 C16.9256132,22.3599431 16.9178228,22.3506079 16.9102161,22.3411239 L6.38577984,9.21925334 C6.12661837,8.89613074 6.17846912,8.42409625 6.50159172,8.16493478 C6.63469433,8.05817943 6.80021969,8 6.97084505,8 L15.7355311,8 Z" id="形状结合" fill="url(#radialGradient-3)"></path>
        </g>
    </g>
</svg>
