<svg width="32px" height="32px" viewBox="0 0 32 32" version="1.1" xmlns="http://www.w3.org/2000/svg" xmlns:xlink="http://www.w3.org/1999/xlink">
    <title>app-third party/xorg/32px</title>
    <defs>
        <filter x="-7.1%" y="-3.6%" width="114.3%" height="114.3%" filterUnits="objectBoundingBox" id="filter-1">
            <feOffset dx="0" dy="1" in="SourceAlpha" result="shadowOffsetOuter1"></feOffset>
            <feGaussianBlur stdDeviation="0.5" in="shadowOffsetOuter1" result="shadowBlurOuter1"></feGaussianBlur>
            <feColorMatrix values="0 0 0 0 0   0 0 0 0 0   0 0 0 0 0  0 0 0 0.15 0" type="matrix" in="shadowBlurOuter1" result="shadowMatrixOuter1"></feColorMatrix>
            <feMerge>
                <feMergeNode in="shadowMatrixOuter1"></feMergeNode>
                <feMergeNode in="SourceGraphic"></feMergeNode>
            </feMerge>
        </filter>
        <linearGradient x1="50%" y1="0%" x2="50%" y2="98.1385523%" id="linearGradient-2">
            <stop stop-color="#FFFFFF" offset="0%"></stop>
            <stop stop-color="#EDEDED" offset="100%"></stop>
        </linearGradient>
        <radialGradient cx="50%" cy="50%" fx="50%" fy="50%" r="86.9406321%" gradientTransform="translate(0.5, 0.5), scale(0.8158, 1), rotate(90), scale(1, 1.2351), translate(-0.5, -0.5)" id="radialGradient-3">
            <stop stop-color="#22C8FB" offset="0%"></stop>
            <stop stop-color="#0074FF" offset="56.2445296%"></stop>
            <stop stop-color="#0074FF" offset="78.3818274%"></stop>
            <stop stop-color="#44B0FB" offset="100%"></stop>
        </radialGradient>
    </defs>
    <g id="app-third-party/xorg/32px" stroke="none" stroke-width="1" fill="none" fill-rule="evenodd">
        <g id="编组" filter="url(#filter-1)" transform="translate(2, 2)">
            <rect id="矩形" fill="url(#linearGradient-2)" x="0" y="0" width="28" height="28" rx="6"></rect>
            <path d="M16.7157549,13.0598149 L23.6854578,21.1742137 C23.8653846,21.3836915 23.8414288,21.6993663 23.631951,21.8792931 C23.5412751,21.9571774 23.4256974,22 23.3061647,22 L17.4651064,22 C17.1766177,22 16.9021844,21.8754111 16.7122917,21.6582325 L13.7556413,18.2767377 C13.5388487,18.028794 13.1668481,17.9916354 12.9052948,18.1917978 L8.19810129,21.7941364 C8.02363474,21.9276528 7.81005512,22 7.59036168,22 L6.13315888,22 C5.8570165,22 5.63315888,21.7761424 5.63315888,21.5 C5.63315888,21.3492343 5.70118836,21.2065178 5.818309,21.1115807 L15.8480762,12.9815237 C16.1108377,12.7685311 16.4953639,12.8032271 16.7157549,13.0598149 Z M10.5348936,6 C10.8233823,6 11.0978156,6.12458894 11.2877083,6.34176747 L14.2443587,9.72326226 C14.4611513,9.971206 14.8331519,10.0083646 15.0947052,9.80820216 L19.8018987,6.20586364 C19.9763653,6.07234723 20.1899449,6 20.4096383,6 L21.8668411,6 C22.1429835,6 22.3668411,6.22385763 22.3668411,6.5 C22.3668411,6.65076572 22.2988116,6.79348216 22.181691,6.8884193 L12.1519238,15.0184763 C11.8891623,15.2314689 11.5046361,15.1967729 11.2842451,14.9401851 L4.31454222,6.82578634 C4.1346154,6.61630854 4.15857119,6.30063372 4.36804899,6.12070689 C4.45872487,6.04282263 4.57430261,6 4.69383533,6 L10.5348936,6 Z" id="形状结合" fill="url(#radialGradient-3)"></path>
        </g>
    </g>
</svg>
