<svg width="24px" height="24px" viewBox="0 0 24 24" version="1.1" xmlns="http://www.w3.org/2000/svg" xmlns:xlink="http://www.w3.org/1999/xlink">
    <title>app-third party/xorg/24px</title>
    <defs>
        <filter x="-7.5%" y="-7.5%" width="115.0%" height="115.0%" filterUnits="objectBoundingBox" id="filter-1">
            <feOffset dx="0" dy="0" in="SourceAlpha" result="shadowOffsetOuter1"></feOffset>
            <feGaussianBlur stdDeviation="0.5" in="shadowOffsetOuter1" result="shadowBlurOuter1"></feGaussianBlur>
            <feColorMatrix values="0 0 0 0 0   0 0 0 0 0   0 0 0 0 0  0 0 0 0.15 0" type="matrix" in="shadowBlurOuter1" result="shadowMatrixOuter1"></feColorMatrix>
            <feMerge>
                <feMergeNode in="shadowMatrixOuter1"></feMergeNode>
                <feMergeNode in="SourceGraphic"></feMergeNode>
            </feMerge>
        </filter>
        <linearGradient x1="50%" y1="0%" x2="50%" y2="98.1385523%" id="linearGradient-2">
            <stop stop-color="#FFFFFF" offset="0%"></stop>
            <stop stop-color="#EDEDED" offset="100%"></stop>
        </linearGradient>
        <radialGradient cx="50%" cy="50%" fx="50%" fy="50%" r="86.9406321%" gradientTransform="translate(0.5, 0.5), scale(0.8158, 1), rotate(90), scale(1, 1.2351), translate(-0.5, -0.5)" id="radialGradient-3">
            <stop stop-color="#22C8FB" offset="0%"></stop>
            <stop stop-color="#0074FF" offset="56.2445296%"></stop>
            <stop stop-color="#0074FF" offset="78.3818274%"></stop>
            <stop stop-color="#44B0FB" offset="100%"></stop>
        </radialGradient>
    </defs>
    <g id="app-third-party/xorg/24px" stroke="none" stroke-width="1" fill="none" fill-rule="evenodd">
        <g id="编组" filter="url(#filter-1)" transform="translate(2, 2)">
            <path d="M4.5,0 L15.5,0 C17.9852814,-4.56538782e-16 20,2.01471863 20,4.5 L20,15.5 C20,17.9852814 17.9852814,20 15.5,20 L4.5,20 C2.01471863,20 3.04359188e-16,17.9852814 0,15.5 L0,4.5 C-3.04359188e-16,2.01471863 2.01471863,4.56538782e-16 4.5,0 Z" id="矩形" fill="url(#linearGradient-2)"></path>
            <path d="M12.0368162,9.29486118 L17.2640933,15.3806602 C17.3990385,15.5377686 17.3810716,15.7745247 17.2239633,15.9094698 C17.1559563,15.967883 17.069273,16 16.9796235,16 L12.5988298,16 C12.3824633,16 12.1766383,15.9065583 12.0342188,15.7436744 L9.81673096,13.2075533 C9.65413653,13.0215955 9.37513609,12.9937265 9.17897113,13.1438484 L5.64857597,15.8456023 C5.51772606,15.9457396 5.35754134,16 5.19277126,16 L4.09986916,16 C3.89276238,16 3.72486916,15.8321068 3.72486916,15.625 C3.72486916,15.5119257 3.77589127,15.4048884 3.86373175,15.3336855 L11.3860571,9.23614278 C11.5831283,9.0763983 11.8715229,9.10242032 12.0368162,9.29486118 Z M7.40117021,4 C7.61753674,4 7.82336172,4.0934417 7.96578122,4.25632561 L10.183269,6.79244669 C10.3458635,6.9784045 10.6248639,7.00627346 10.8210289,6.85615162 L14.351424,4.15439773 C14.4822739,4.05426042 14.6424587,4 14.8072287,4 L15.9001308,4 C16.1072376,4 16.2751308,4.16789322 16.2751308,4.375 C16.2751308,4.48807429 16.2241087,4.59511162 16.1362683,4.66631447 L8.61394288,10.7638572 C8.41687169,10.9236017 8.1284771,10.8975797 7.96318382,10.7051388 L2.73590667,4.61933975 C2.60096155,4.4622314 2.6189284,4.22547529 2.77603674,4.09053017 C2.84404365,4.03211698 2.93072695,4 3.0203765,4 L7.40117021,4 Z" id="形状结合" fill="url(#radialGradient-3)"></path>
        </g>
    </g>
</svg>
