<svg width="16px" height="16px" viewBox="0 0 16 16" version="1.1" xmlns="http://www.w3.org/2000/svg" xmlns:xlink="http://www.w3.org/1999/xlink">
    <title>app-third party/xorg/16px</title>
    <defs>
        <radialGradient cx="50%" cy="50%" fx="50%" fy="50%" r="86.9406321%" gradientTransform="translate(0.5, 0.5), scale(0.8158, 1), rotate(90), scale(1, 1.2351), translate(-0.5, -0.5)" id="radialGradient-1">
            <stop stop-color="#22C8FB" offset="0%"></stop>
            <stop stop-color="#0074FF" offset="56.2445296%"></stop>
            <stop stop-color="#0074FF" offset="78.3818274%"></stop>
            <stop stop-color="#44B0FB" offset="100%"></stop>
        </radialGradient>
    </defs>
    <g id="app-third-party/xorg/16px" stroke="none" stroke-width="1" fill="none" fill-rule="evenodd">
        <path d="M10.0368162,7.29486118 L15.2640933,13.3806602 C15.3990385,13.5377686 15.3810716,13.7745247 15.2239633,13.9094698 C15.1559563,13.967883 15.069273,14 14.9796235,14 L10.5988298,14 C10.3824633,14 10.1766383,13.9065583 10.0342188,13.7436744 L7.81673096,11.2075533 C7.65413653,11.0215955 7.37513609,10.9937265 7.17897113,11.1438484 L3.64857597,13.8456023 C3.51772606,13.9457396 3.35754134,14 3.19277126,14 L2.09986916,14 C1.89276238,14 1.72486916,13.8321068 1.72486916,13.625 C1.72486916,13.5119257 1.77589127,13.4048884 1.86373175,13.3336855 L9.38605712,7.23614278 C9.58312831,7.0763983 9.8715229,7.10242032 10.0368162,7.29486118 Z M5.40117021,2 C5.61753674,2 5.82336172,2.0934417 5.96578122,2.25632561 L8.18326904,4.79244669 C8.34586347,4.9784045 8.62486391,5.00627346 8.82102887,4.85615162 L12.351424,2.15439773 C12.4822739,2.05426042 12.6424587,2 12.8072287,2 L13.9001308,2 C14.1072376,2 14.2751308,2.16789322 14.2751308,2.375 C14.2751308,2.48807429 14.2241087,2.59511162 14.1362683,2.66631447 L6.61394288,8.76385722 C6.41687169,8.9236017 6.1284771,8.89757968 5.96318382,8.70513882 L0.735906668,2.61933975 C0.600961548,2.4622314 0.618928395,2.22547529 0.776036744,2.09053017 C0.844043653,2.03211698 0.930726954,2 1.0203765,2 L5.40117021,2 Z" id="形状结合" fill="url(#radialGradient-1)"></path>
    </g>
</svg>
